<?xml version="1.0" standalone="no"?>
<!DOCTYPE svg PUBLIC "-//W3C//DTD SVG 20010904//EN"
 "http://www.w3.org/TR/2001/REC-SVG-20010904/DTD/svg10.dtd">
<svg version="1.0" xmlns="http://www.w3.org/2000/svg"
 width="700.000000pt" height="700.000000pt" viewBox="0 0 700.000000 700.000000"
 preserveAspectRatio="xMidYMid meet">
<metadata>
Created by potrace 1.11, written by Peter Selinger 2001-2013
</metadata>
<g transform="translate(0.000000,700.000000) scale(0.100000,-0.100000)"
fill="#000000" stroke="none">
<path d="M0 3500 l0 -3500 3500 0 c1925 0 3500 1 3500 3 -1 1 -79 236 -175
522 l-174 520 -2800 3 -2801 2 0 2450 0 2450 2799 0 2799 0 10 28 c6 15 83
243 171 507 88 264 162 488 166 498 7 16 -164 17 -3494 17 l-3501 0 0 -3500z"/>
<path d="M1636 4907 c-126 -380 -231 -695 -233 -699 -2 -5 49 -8 114 -8 l118
0 38 118 c21 64 48 143 59 175 l21 57 2097 0 2098 0 10 28 c12 30 306 912 327
980 l13 42 -2216 0 -2217 0 -229 -693z"/>
<path d="M1408 3827 c4 -12 56 -170 116 -350 l109 -327 2333 0 2333 0 -9 28
c-4 15 -56 172 -116 350 l-107 322 -2333 0 -2332 0 6 -23z"/>
<path d="M6066 2791 c-3 -5 -22 -58 -42 -117 -19 -60 -45 -135 -56 -166 l-21
-58 -2099 -2 -2100 -3 -159 -475 c-87 -261 -165 -496 -173 -522 l-14 -48 2217
0 2216 0 229 688 c126 378 231 693 233 700 4 9 -23 12 -111 12 -63 0 -117 -4
-120 -9z"/>
</g>
</svg>
